<?xml version="1.0" encoding="iso-8859-1"?>
<!-- Generator: Adobe Illustrator 19.0.0, SVG Export Plug-In . SVG Version: 6.00 Build 0)  -->
<svg xmlns="http://www.w3.org/2000/svg" xmlns:xlink="http://www.w3.org/1999/xlink" version="1.1" id="Layer_1" x="0px" y="0px" viewBox="0 0 512 512" style="enable-background:new 0 0 512 512;" xml:space="preserve" width="512px" height="512px">
<g>
	<g>
		<path d="M437.019,74.981C388.667,26.628,324.379,0,256,0S123.333,26.628,74.982,74.981C26.628,123.333,0,187.621,0,256    s26.628,132.667,74.982,181.019C123.333,485.372,187.621,512,256,512s132.667-26.628,181.019-74.981S512,324.379,512,256    S485.372,123.333,437.019,74.981z M256,495.832C123.756,495.832,16.168,388.244,16.168,256S123.756,16.168,256,16.168    S495.832,123.756,495.832,256S388.244,495.832,256,495.832z" fill="#e00be0"/>
	</g>
</g>
<g>
	<g>
		<path d="M408.491,159.434c-2.735-4.304-8.783-4.922-12.388-1.315c-0.039,0.039-0.078,0.078-0.116,0.116    c-2.667,2.667-3.083,6.813-1.064,9.999c16.112,25.41,25.457,55.516,25.457,87.766c0,90.639-73.74,164.379-164.379,164.379    c-40.05,0-78.635-14.575-108.654-41.044c-1.497-1.32-3.409-2.072-5.406-2.072H95.478l15.266-38.167    c0.877-2.197,0.75-4.667-0.349-6.762C98.112,308.957,91.621,282.561,91.621,256c0-90.639,73.74-164.379,164.379-164.379    c44.86,0,85.573,18.069,115.261,47.303c3.128,3.081,8.155,3.054,11.261-0.051l0.103-0.103c3.156-3.156,3.11-8.272-0.071-11.402    C349.949,95.283,305.25,75.453,256,75.453c-99.553,0-180.547,80.993-180.547,180.547c0,27.91,6.53,55.659,18.914,80.505    l-18.336,45.84c-1.305,3.265-0.377,7.1,2.557,9.402c1.459,1.146,3.309,1.685,5.165,1.685h55.172    c32.638,27.826,74.09,43.116,117.076,43.116c99.553,0,180.547-80.993,180.547-180.547    C436.547,220.508,426.251,187.378,408.491,159.434z" fill="#e00be0"/>
	</g>
</g>
<g>
	<g>
		<path d="M371.269,297.563c-0.421-1.046-1.099-1.968-1.896-2.765l-45.598-45.597c-3.158-3.157-8.276-3.157-11.433,0l-19.245,19.246    c-24.04-9.23-40.312-25.502-49.542-49.542l19.246-19.246c3.157-3.157,3.157-8.276,0-11.432l-45.731-45.731    c-3.158-3.157-8.276-3.157-11.433,0l-46.894,46.891c-11.125,11.127-12.563,28.427-3.418,41.138    c19.388,26.944,41.063,51.961,64.798,74.881c3.149,3.041,8.15,3.015,11.245-0.081c0.038-0.038,0.077-0.077,0.114-0.114    c3.157-3.157,3.125-8.292-0.087-11.394c-23.056-22.262-44.113-46.562-62.945-72.734c-4.494-6.245-3.767-14.767,1.728-20.261    l41.176-41.176l34.298,34.299l-17.149,17.149c-2.154,2.154-2.928,5.346-1.965,8.236c10.959,32.91,33.198,55.157,66.1,66.125    c2.904,0.966,6.108,0.212,8.274-1.953l17.148-17.149l34.299,34.299l-41.176,41.176c-5.495,5.495-14.015,6.223-20.261,1.728    c-10.574-7.609-20.836-15.589-30.788-23.91c-3.168-2.648-7.841-2.418-10.761,0.502l-0.109,0.109    c-3.325,3.325-3.084,8.791,0.524,11.808c10.244,8.565,20.805,16.782,31.69,24.614c5.596,4.027,12.08,6.001,18.538,6.001    c8.208,0,16.372-3.193,22.6-9.421l46.892-46.892C371.745,304.125,372.535,300.703,371.269,297.563z" fill="#e00be0"/>
	</g>
</g>
<g>
</g>
<g>
</g>
<g>
</g>
<g>
</g>
<g>
</g>
<g>
</g>
<g>
</g>
<g>
</g>
<g>
</g>
<g>
</g>
<g>
</g>
<g>
</g>
<g>
</g>
<g>
</g>
<g>
</g>
</svg>
